<svg xmlns="http://www.w3.org/2000/svg" viewBox="0 0 1728 1296"><defs><style>.cls-1{fill:#231f20;}.cls-2{fill:#fff;}</style></defs><title>you-wouldnt-download-a-car-18x24</title><g id="Background"><rect class="cls-1" x="-18" y="-18" width="1764" height="1332"/></g><g id="Text"><path class="cls-2" d="M357.94,309.84l-3,26.38-5.67,29.84-8.14,23.18-4.69,20.22-2.71,6.41-3,13.31,3.46,4.94,1.23,49.31-6.91,7.15L319,489.1l-5.43-6.9.5-56.22L300,388.5l-2.22-22.93-8.38-11.35V349l-3.7-3.2-2-14.8-2-13.31-.24-4.44,6.9-5.43,6.41,1.48,8.88,14.8,2,14.79,3,3,5.92,29.59,3.45,5.18,1.73,1.73,1.72-.25,9.13-29.84,1.48-9.86L338,321.67l1.48-9.86,9.62-7.15,5.18,1.73Z"/><path class="cls-2" d="M463.28,414.93l-3.21,5.4,1,39.3-6.66,13.26-12.82,11.79-7.89,3.68-24.66-1-19-17.92-4.93-15.71,2.47-15v-5.16h1.72l4.93-5.42,1.48-11.34L394,415.13h-3.46l-.24-9.62,4.93-2,10.36,18,.49,24.66-4.93,5.42,10.6,7.65,4.69,5.18,14.79-.5,9.62-11.59,2.22-46.6L440.34,368l-2-1.73v-5.17l3.45-3.46,3-11.58-5.42-11.35-15.29-16.27,1.48-4.69V308.6l-4.69-3.2,6.42,3.2,6.65-3.2,11.59,4.91,13.81,17.93,3.7,11.3Zm-48.83-89.27-6.16,8.17-6.41,15.08.24,5.19,5.18,6.18-1,25.47-6.66,13.35h-6.17l-1.72-1.72-.25-6.91-.25-4.68-3.45-4.94,1.23-22.93,3.21-3.7-3.7-8.38v-1.23l3.45-3.46h4.44l3.45-3.48L395,326.24l15.54-17.14H414Z"/><path class="cls-2" d="M585.46,386.89l-1.72,9.87-4.44,24.66-3.46,3.45,5.43,9.86.49,23.43h-6.9V468l2,1.73-2.71,8.13-18.25,12.33-18.25.25-16.76-8.12-8.39-9.61-5.67-24.38L508,421.76l.5-61.32-.5-21.18,1.24-25.12,6.16-6.4,8.63,1.48,5.43,7.88-4.93,11.57,3.45,5.17-1.73,80.75L529,459.16l6.42,6.15h20l7.89-10.13,3.2-11.36-4.19-41.24-.74-33.34,3-16.8-3.94-34.33,3.2-9.88,16.52,1.48,3.7,6.17.25,8.63-3.45,3,1,54.49Z"/><path class="cls-2" d="M1348.29,804.14l-3.12,9.36-4,4-7.94-2-9.36-16.73-11.63-11.06L1300.64,790l-7.37,4-7.66,9.35-2.83,23.26,1.41,3.4v5.68l-5.1,6.23,4.25,9.08,1.7,17L1276,881.56l4,5.67,1.13,52.75,7.38,9.93,6.23,5.1,17,3.41,11.06-11.35,7.66-19.28,3.12-2h6l8.22,9.64-3.7,18.44-12.8,15.6h-6l-9.11,8.22-29,2.55-13.65-9.64-11.67-20.42v-25l1.13-129.32,24.11-23,11.06-4,23.25,1.42,15.32,10.77Z"/><path class="cls-2" d="M1456.31,896.23l-4.18,3.59.3,16.16-19.45,2.4-10.18,4.48-27.82.6L1384.8,945.9l-.89,11.67-1.8,18.25-6.28,4.19-6.28-1.79h-1.5l-4.19-4.19,4.49-52.36,10.17-16.16,1.8-20,5.08-20.34,4.19-5.69-4.49-11.67,6-14.66,6-7.78.9-26.63h2.09l4.19-3.59-.3-10.47h4.19l-1.79,20,4.49,4.19-2.1,9.87.3,4.19H1407l-4.19,4.19v5.68l4.19,3.89-1.5,16.16-1.8,16.16-9.87,4.19-3.89,7.78,4.49,12.56v5.39l5.68,6.28,36.21-.9,10.17-9.87v-6.28h5.39Zm-27.52-94-4.49-4.18-6.28.3-3.59-18h-6.29l-4.49-3.29,2.1-8.38,6.28-.29,2.1,8.37,5.68,3.29,6.58,6.29Zm20.34,45.48-3,26.63-2.09,2.1-6.59-12.57-5.68-17-.9-32.92,1.5-1.19,8.38-.3,4.48,11.67Zm-6.88-67.92-4.19,8.38v-9.87h2.1ZM1480,960l-2.09,7.78-8.38,2.1,4.49,6.28-7.78-2.09-4.19-3.89-4.49-14.06L1453,933.93l3.89-9.87,6.29,5.68,8.07,18,.3,8.38Zm-17.65-72.1h-4.19l-4.19-3.89v-4.19l6.28-3.59,2.1,5.38Zm6,17.95-1.19,2.09-6.59-8.08,2.1-3.59,5.68,5.39Z"/><path class="cls-2" d="M1584,861.41l-7.23.28-3.62,3.34v3.89l5.84,3.62-1.67,11.13-7.51,9.74.28,16.41,6.68,26.16,6.12,46.46-7,7.23-11.13.28-10-16.42-4.73-34.77-3.34-3.9L1544.21,907l-5.84-5.56-9.18-2-5.56,8.07,1.66,72.33-10.85,11.41-15-1.67-3.89-5.29.55-61.48,3.34-26.43-.56-18.09,1.4-84.3L1513.61,781l31.72,3.06,11.13,5,7.23,9.47.28,1.94-10.85,7.24-22,.55-3.9,3.9-1.11,37,.28,18.92,4.17,5.56,29.77-.55L1564,867l-2.78-35.34-.28-15,5-5.29,9.73,1.67,5.57,7.24L1579.55,833l-7,8.07,2,5.85v3l9.46,7.52Z"/><path class="cls-2" d="M881,465l-1.42,47.21-6.13,13L859.31,535.3l-10.84,3.07-14.38-1.18-14.38-7.32-9.66-12.51-3.78-17.46,3.3-6.14.95-19.12,4.24-11.09-.24-6.14-6.6-24.07L807,402.18l4.72-9.44-.24-11.57,19.8-15.81,7.78-1.89,15.79,1.18L869.45,372l9.66,12.51Zm-21.93-70.85-8-7.3-15.79-1.42-4.95,6.84-2.83,18.62,3.53,7.54-2.12,38.66.47,20.27-2.12,26.87,4.72,7.54,16,4.48,6.36-5.18,4-12.73V435.36Z"/><path class="cls-2" d="M1001.68,495.25,998.84,513l-5.68,12.74L980.61,537l-8.05,3.54-27.22-1.18-5.83-3.06-11.67-12.49-4.67-9.2-1.4-64.58V383.81l2.59-14.38,8-5.18h5l7.78,9.66,1.18,50.44-2.83,20.28,4,25.22-3.3,4.95,3.54,12.49.71,21.92,6.13,6.37L972,513.69l3.06-5.2,2.83-21.95-2.12-94.9L976.93,373l1.18-5,8-3.55,6.13-.23,8.25,6.37.24,85.21-4.48,14.39Z"/><path class="cls-2" d="M1114.25,523.13l-1.35,11-10.35,4.28-53.13-1.8-4.05-2.7L1042,531l-2-90.49,2.47-72.49,6.3-4.72,13.74,1.12,4.27,4.73-.67,20.93-4,94.77,3.15,7.88-2.7,16.89,1.8,4,37.59.67,9,2.93Z"/><path class="cls-2" d="M1219.5,421.38l-1.3,8.66-2.81,13.2.86,36.14-.65,39.39-9.95,10.17-17.53,3.46-34.63-.65-2.59-3-.87-33.33,2.38-6.92,8.87-7.79-3-3-4.54.21-3.25-7.14-1.29-63.84,2.38-30.29,4.32-4.55,4.12-1.51,20.55.86,17.1-.22,9.31,4.33,5.62,6.93,3.25,11.47.43,24.67Zm-18-15.58-.22-7.14-7.14-7.36-10.17-.86-11.69-2.6-4.33,3V395l-1.3,4.54,3,4.33,1.3,63.41L1168.43,479l.43,24.67,3.24,9.09,18.62.43,6.06-4.11,1.94-19-1.51-76.61Z"/><path class="cls-2" d="M1347,410.77,1344.16,477l.95,46.2-4.72,9.43-4.71,3.3-7.78.23-7.78-6.36-7.07-23.57-3.3-4.72-1.88-9.43-2.83-4.71-3.78-15.32-6.83-17.45-2.83-3.06-3.3,3.3-2.59,36.3.94,36.06-4.71,8.25-4.48,1.89h-5l-9.43-10.61,2.59-33.7.71-83.92,2.36-42.19,3.3-1.65,9.43,1.41,11.31,16.74,1.89,9.9,4.95,7.54,11.78,29.94,3.54,14.14,3.3,4.24h1.18L1323,386l-.47-15.79,5-6.13,10.84-.47,3.54,9.43,2.12,19.09Z"/><path class="cls-2" d="M1406.93,408.68l-9,16-5,5.18-9.19.24-6.84-6.6,1.42-9.19,8-14.62,1.41-10.84,4.25-5.19h8.25l6.13,6.37Z"/><path class="cls-2" d="M1508.19,394.08l-9.16,8-13.63.45-2.46,4.69,2.91,107.47-.9,27-2.9,4.24-3.13,3.35L1470,548l-4.91-10.27L1462.61,439l.67-31.28-5.81-4.47-12.06-1.34-8.05-6.93,1.34-9.38,8.72-6,54.07,2.68,4.91,3.13,1.57,4.69Z"/><path class="cls-2" d="M213,835.42l-2.89,10.87-4.43,7.32L197,860l-31.5,3.11-16-3.77-4.88-6,.44-49L144.22,760l3.11-3.11L144,746.68l2.66-13.54-.44-20.63,4-4.88,6.21,1.55,3.11-3.1-4.88-6.22,3.11-4.21,13.31-.22,3.32,3.1-1.55,7.1.22,4.66-13.31,2.89-4.66,6.43,7.32,4.44,3.33,10.2L162,743.13l.44,22.18-1.11,16.42-3.1,3.33,4.88,10.2.89,41.27,5.77,4.44,19.52-.45,4-4.66,1.11-28,2.66-12v-4.66l3.11,3.1,1.11-1.55-.22-4.66-1.11-1.55H197l-3.55-14.2.67-37.27,8.65-8V725.6l-7.32-4v-2.89l-8-6.21-7.1-.89-3.32-2.88,3.1-4.66-1.77-4.66v-2.66l10.42,1.33,9.32,2.44,4.22,2.88h6.21l3.11,7.55.22,5.77-4.44,4.65,3.33,10.21,1.77,12,.23,16.42-2.89,4.21-1.55,1.56,3.33,8.65-1.56,6.43-2.88,8.65,4.88,8.66Zm-25.52-130-.22-3.1h-5.54Z"/><path class="cls-2" d="M319.72,808l-1.48,49.16-6.38,13.52-14.73,10.57-11.29,3.2-15-1.23-15-7.62-10.06-13-3.93-18.19,3.44-6.39,1-19.91,4.42-11.55-.25-6.4-6.87-25.06-1-32.45,4.91-9.83-.25-12,20.62-16.47,8.1-2,16.45,1.22,15.22,7.62,10.06,13Zm-22.83-73.78-8.35-7.61-16.45-1.48-5.15,7.12L264,751.65l3.69,7.85-2.21,40.26.49,21.11-2.21,28,4.91,7.86,16.69,4.66L292,856l4.17-13.25V777.17Z"/><path class="cls-2" d="M457.43,717.61l-1.33,13.54-2.22,12,.22,13.31-2.88,4.21.22,15.09-2.88,8.65-1.11,21.3-2.89,5.77-.44,26.84-4,28.4-2.89,4.22-10.43,3.32-6.21-1.33-7.32-8.65-2-18-3.1-4.22-5.1,24-1.56,4.65-3.1,2.67-16-1.11L376,860.49l-.22-14.42L368.47,776l-3.55-14.86-1.78-17.53-3.33-6-.22-12L357.82,717l-.22-4.66,7.76-7.54H374l5.77,5.54,3.55,14.87,2,26.62,3.55,15.08.22,7.1,1.55,1.56,2.44-3.11,1.33-13.09,9.1-9.32,10.21-.22,7.54,9.1,1.77,16,1.56,1.33h3.1l2.44-8.87,3.77-40.38,2.89-13.31-.22-1.55,7.1-4.44,7.76.89Z"/><path class="cls-2" d="M772.43,395l-1.34,13.53-2.21,12,.22,13.32-2.89,4.21.23,15.09-2.89,8.65-1.11,21.3-2.88,5.77-.45,26.84-4,28.4-2.88,4.21-10.43,3.33-6.21-1.33-7.32-8.65-2-18-3.11-4.22-5.1,24-1.55,4.66-3.11,2.66-16-1.11L691,537.92l-.22-14.42-7.32-70.11-3.55-14.87L678.14,421l-3.33-6-.22-12-1.78-8.65-.22-4.66,7.77-7.55H689l5.77,5.55,3.55,14.86,2,26.63,3.55,15.08.22,7.1,1.56,1.55,2.44-3.1,1.33-13.09,9.09-9.32,10.21-.22,7.54,9.1,1.78,16,1.55,1.33h3.11l2.44-8.87,3.77-40.38,2.88-13.31-.22-1.56,7.1-4.43,7.77.88Z"/><path class="cls-2" d="M571.88,748.78l-2.66,62.35.88,43.48-4.43,8.87-4.44,3.11-7.32.22-7.32-6-6.66-22.18-3.11-4.44-1.77-8.88-2.66-4.43-3.55-14.42-6.44-16.42-2.66-2.88-3.1,3.1-2.45,34.17.89,33.94-4.43,7.77-4.22,1.77h-4.66l-8.87-10,2.44-31.73.66-79,2.22-39.71,3.11-1.55,8.87,1.33,10.65,15.75,1.78,9.32,4.65,7.1,11.1,28.17L541.71,781l3.1,4h1.11l3.33-59.46-.45-14.86,4.66-5.77,10.21-.45,3.33,8.88,2,18Z"/><path class="cls-2" d="M690.52,843.63l-1.33,10.87L679,858.71l-52.36-1.77-4-2.66-3.33-2.89-2-89.18,2.44-71.44,6.21-4.66,13.53,1.11,4.22,4.66L643,712.51l-4,93.4,3.1,7.77-2.66,16.64,1.78,4,37.05.67,8.87,2.88Z"/><path class="cls-2" d="M779.88,799.38l-1.33,44.43L772.78,856l-13.31,9.56-10.21,2.89-13.53-1.11-13.53-6.89-9.1-11.78-3.55-16.44,3.11-5.77.89-18,4-10.44-.22-5.78-6.22-22.65-.88-29.33,4.43-8.88-.22-10.89,18.64-14.88,7.32-1.78L755.25,705,769,711.86l9.1,11.77ZM759.25,732.7l-7.55-6.88-14.86-1.33-4.66,6.43-2.66,17.53,3.33,7.1-2,36.39.44,19.07-2,25.3,4.43,7.1,15.09,4.21,6-4.88,3.77-12V771.52Z"/><path class="cls-2" d="M901.68,844.72l-4.44,8.88-4,4.89-12,.22-8.21-17.85-2-16.06-5.76-6-10.21.22-3.33-3.1-18,3.55-6.88,8-2.66,17.75-2.88,6.21-8.65,7.32-7.32-1.33-6.44-7.1L800.29,837l2.89-4.66,2.66-15.08,5.32-16.2,1.33-10.43,5.77-15.08.67-11.76,8.21-43.71,5.1-22.18,7.54-7.54,17.53.66,6.43,10.66.22,4,2.67,3.11.22,11.78,4.88,6.22,3.33,14.44,3.77,19.55,2.66,4,2,19.55,3.33,5.56,1.77,13.33,3.33,4.66.22,7.33,4.22,4.44.22,13.33Zm-40.16-52.78v-4l-1.77-1.55L858,777.07l-4.21-7.1-.22-7.1-4.88-13.31-3.11,3.11-2.66,17.52-5.33,10.43v4.66l1.78,5.77,5.77,2.88,12,1.33Z"/><path class="cls-2" d="M1163.32,852.49l-3.71,7.43-3.35,4.09-10,.19-6.87-14.94-1.67-13.44-4.83-5-8.54.19-2.78-2.6-15,3-5.76,6.68-2.23,14.85-2.41,5.2-7.24,6.13-6.13-1.11-5.38-6,1.11-11.14,2.42-3.89,2.22-12.63,4.46-13.55,1.11-8.73,4.83-12.62.56-9.84,6.87-36.58,4.27-18.56,6.31-6.31,14.67.55,5.38,8.93.19,3.34,2.22,2.61.19,9.85,4.08,5.2,2.79,12.09,3.16,16.36,2.22,3.34,1.67,16.36,2.79,4.65,1.49,11.15,2.78,3.91.19,6.13,3.52,3.72.19,11.15Zm-33.61-44.17V805l-1.48-1.31-1.49-7.79-3.52-5.94L1123,784,1119,772.86l-2.6,2.6-2.23,14.66-4.46,8.73v3.9l1.49,4.82L1116,810l10,1.11Z"/><path class="cls-2" d="M991.66,744.68l-1.33,8.87-2.89,13.54.89,37-.67,40.38-10.2,10.42-18,3.55-35.5-.66-2.66-3.11-.89-34.17,2.44-7.09,9.1-8-3.11-3.11-4.66.22-3.33-7.32-1.33-65.44L922,698.76l4.44-4.66,4.22-1.56,21.07.89,17.53-.22,9.54,4.44,5.77,7.1,3.33,11.75.44,25.3Zm-18.42-16-.22-7.33-7.32-7.54L955.27,713l-12-2.66-4.43,3.11v4.21l-1.34,4.66,3.11,4.44,1.33,65-2.66,12,.44,25.29,3.33,9.32,19.08.45,6.21-4.22,2-19.52-1.55-78.54Z"/></g></svg>