<svg xmlns="http://www.w3.org/2000/svg" viewBox="0 0 1224 792"><defs><style>.cls-1{fill:#231f20;}.cls-2{fill:#fff;}</style></defs><title>you-wouldnt-download-a-car-11x17</title><g id="Background"><rect class="cls-1" x="-18" y="-18" width="1260" height="828"/></g><g id="Text"><path class="cls-2" d="M257.59,160.05l-2.07,18.44-4,20.86-5.69,16.2-3.27,14.14-1.9,4.48-2.07,9.31,2.41,3.45.87,34.47-4.83,5-6.72-1-3.8-4.83.35-39.3L217.08,215l-1.55-16-5.86-7.93v-3.62l-2.58-2.24-1.38-10.34-1.38-9.31-.18-3.1,4.83-3.79,4.48,1L219.67,170l1.38,10.35,2.07,2.06,4.13,20.69,2.42,3.62,1.2,1.21,1.21-.17,6.38-20.86,1-6.9,4.14-11.72,1-6.9,6.73-5,3.62,1.2Z"/><path class="cls-2" d="M331.23,233.51,329,237.29l.69,27.47L325,274l-9,8.24-5.51,2.58-17.24-.69L280,271.64l-3.45-11,1.72-10.47v-3.6h1.21l3.45-3.79,1-7.93-1.21-1.21h-2.41l-.17-6.72,3.45-1.38,7.24,12.58.34,17.24-3.45,3.79,7.42,5.35,3.27,3.62,10.34-.35,6.73-8.1,1.55-32.58-1.9-26.37-1.38-1.21V195.9l2.42-2.41,2.07-8.1-3.8-7.93-10.69-11.38,1-3.28v-3.62l-3.28-2.24,4.49,2.24,4.65-2.24,8.1,3.44,9.66,12.53,2.58,7.9Zm-34.13-62.4-4.31,5.7-4.48,10.55.17,3.63,3.62,4.32-.69,17.8-4.65,9.34h-4.31l-1.21-1.21-.17-4.83-.17-3.27-2.42-3.45.87-16,2.24-2.59L279,185.21v-.86l2.42-2.41h3.1l2.41-2.43-3.45-8,10.86-12h2.42Z"/><path class="cls-2" d="M416.65,213.91l-1.21,6.9-3.1,17.24-2.41,2.41,3.79,6.9.34,16.37h-4.82v6.9l1.38,1.2-1.9,5.69L396,286.14l-12.75.17-11.72-5.68-5.87-6.71-4-17,.86-18.59.35-42.87-.35-14.8.86-17.56,4.31-4.48,6,1,3.79,5.51-3.45,8.09,2.41,3.61-1.2,56.46,1.89,31.15,4.49,4.3h14l5.52-7.08,2.24-7.94-2.93-28.83-.52-23.31L402,189.83l-2.76-24,2.24-6.9L413,160l2.59,4.31.17,6-2.42,2.07.69,38.1Z"/><path class="cls-2" d="M949.92,505.6l-2.18,6.54L945,514.91l-5.55-1.38-6.54-11.7-8.13-7.73-8.13,1.58-5.15,2.78L906.11,505l-2,16.26,1,2.38v4L901.55,532l3,6.35,1.19,11.89-6.34,9.52,2.77,4,.79,36.87,5.16,6.94,4.36,3.57,11.89,2.38,7.74-7.93L937.43,592l2.18-1.39h4.17l5.74,6.74-2.58,12.89-9,10.9h-4.18l-6.37,5.75-20.28,1.79L897.61,622l-8.16-14.27V590.25l.79-90.4,16.86-16.06,7.73-2.78,16.26,1,10.7,7.54Z"/><path class="cls-2" d="M1025.44,570l-2.93,2.51.21,11.3-13.59,1.67L1002,588.6l-19.45.41-7.11,15.69-.63,8.16-1.25,12.76-4.39,2.93-4.4-1.26h-1l-2.93-2.93,3.14-36.6,7.11-11.3,1.25-14,3.56-14.22,2.93-4-3.14-8.15,4.18-10.25,4.19-5.44.62-18.62h1.47l2.93-2.51-.21-7.32h2.92l-1.25,14,3.14,2.92-1.47,6.91.21,2.92h-1.46L988,521.66v4l2.93,2.72-1,11.29L988.63,551l-6.9,2.92L979,559.31l3.13,8.79v3.76l4,4.4,25.31-.63,7.11-6.9v-4.4h3.76ZM1006.2,504.3l-3.14-2.93-4.39.21L996.16,489h-4.4l-3.13-2.3,1.46-5.85,4.39-.21,1.47,5.85,4,2.3,4.6,4.4Zm14.22,31.8-2.09,18.61-1.47,1.47-4.6-8.79-4-11.92-.63-23,1.05-.84,5.85-.21,3.14,8.16Zm-4.81-47.48-2.93,5.85v-6.9h1.47ZM1042,614.53,1040.5,620l-5.86,1.47,3.14,4.39-5.44-1.47-2.93-2.71-3.13-9.84-3.14-15.47,2.72-6.91,4.39,4L1035.9,606l.21,5.85Zm-12.34-50.41h-2.92l-2.93-2.72v-2.92l4.39-2.51,1.46,3.76Zm4.19,12.55-.84,1.47-4.6-5.65,1.46-2.51,4,3.77Z"/><path class="cls-2" d="M1114.7,545.64l-5.06.19-2.52,2.34v2.72l4.08,2.53L1110,561.2l-5.25,6.8.2,11.48,4.66,18.28,4.28,32.48-4.86,5.06-7.78.19-7-11.47L1091,599.71l-2.33-2.73-1.75-19.45-4.09-3.89-6.41-1.36-3.89,5.64,1.16,50.57-7.58,8-10.5-1.17-2.73-3.7.39-43,2.34-18.48-.39-12.64,1-58.93,9.33-9.14,22.18,2.14,7.78,3.5,5,6.61.2,1.36-7.59,5.06-15.36.39-2.73,2.72-.77,25.87.19,13.23,2.92,3.89,20.81-.39,2.53-4.28-2-24.7-.19-10.51,3.5-3.69,6.81,1.17,3.89,5.05-1.17,8.95-4.86,5.64,1.36,4.08v2.14l6.61,5.25Z"/><path class="cls-2" d="M623.25,268.49l-1,33L618,310.57l-9.89,7.09-7.58,2.15-10-.83-10.05-5.11-6.76-8.75L571,292.91l2.31-4.29.66-13.36,3-7.76-.17-4.29-4.61-16.83-.66-21.78,3.29-6.6-.16-8.09,13.84-11,5.44-1.32,11,.82,10.22,5.12,6.75,8.75ZM607.92,219l-5.6-5.11-11-1-3.46,4.78-2,13,2.48,5.27-1.49,27,.33,14.17-1.48,18.78,3.3,5.28,11.2,3.13,4.45-3.63,2.8-8.9v-44Z"/><path class="cls-2" d="M707.62,289.66l-2,12.37-4,8.91-8.77,7.92-5.63,2.48-19-.83-4.08-2.14L656,309.64l-3.27-6.43-1-45.15v-46.3l1.81-10,5.6-3.63h3.46l5.44,6.76.82,35.26-2,14.17,2.8,17.63-2.31,3.46,2.47,8.74.5,15.32,4.28,4.45,12.19-1.32,2.15-3.63,2-15.35-1.48-66.34.82-13,.83-3.47,5.6-2.47,4.29-.17,5.76,4.46L707,262.1l-3.13,10.07Z"/><path class="cls-2" d="M786.31,309.15l-.94,7.72-7.24,3L741,318.6l-2.83-1.89-2.36-2-1.42-63.26,1.73-50.67,4.41-3.31,9.6.79,3,3.31-.47,14.63L749.8,282.4l2.21,5.51-1.89,11.8,1.26,2.84,26.28.47,6.29,2Z"/><path class="cls-2" d="M859.89,238l-.91,6-2,9.23.61,25.27-.45,27.53-7,7.11L838,315.63l-24.2-.45-1.82-2.12-.6-23.3,1.66-4.84,6.2-5.44-2.12-2.12-3.17.15-2.27-5-.91-44.63,1.66-21.18,3-3.18,2.87-1.06,14.38.61,12-.16,6.5,3,3.94,4.84,2.27,8,.3,17.25Zm-12.56-10.89-.15-5-5-5.15-7.11-.6-8.17-1.82-3,2.12v2.88l-.91,3.17,2.12,3L826,270.1l-1.82,8.17.31,17.24,2.27,6.36,13,.3,4.23-2.88L845.37,286l-1.06-53.55Z"/><path class="cls-2" d="M949,230.61l-2,46.3.66,32.3-3.3,6.59-3.29,2.3-5.44.17-5.44-4.45-4.94-16.48L923,294.05l-1.32-6.59-2-3.3-2.64-10.71-4.78-12.19-2-2.15-2.3,2.31-1.82,25.38.66,25.21-3.29,5.76-3.13,1.32H897l-6.59-7.41,1.81-23.57.49-58.66L894.31,200l2.31-1.16,6.59,1,7.91,11.7,1.32,6.92,3.46,5.28,8.24,20.92,2.47,9.89,2.3,3h.83l2.47-44.17-.33-11,3.46-4.28,7.58-.33,2.47,6.59,1.49,13.35Z"/><path class="cls-2" d="M990.92,229.14l-6.27,11.21L981.19,244l-6.42.17L970,239.52l1-6.42,5.6-10.22,1-7.58,3-3.62h5.77l4.29,4.45Z"/><path class="cls-2" d="M1061.7,218.94l-6.4,5.62-9.53.31-1.72,3.28,2,75.13-.62,18.9-2,3-2.19,2.34-6.24-.94-3.44-7.18-1.72-69,.47-21.86-4.06-3.13-8.44-.94-5.62-4.84.94-6.56,6.09-4.21,37.8,1.87,3.43,2.19,1.1,3.28Z"/><path class="cls-2" d="M156.27,527.47l-2,7.6-3.1,5.11-6.05,4.5-22,2.17-11.17-2.63L108.5,540l.31-34.28-.62-31,2.17-2.17L108,465.43,109.9,456l-.31-14.43,2.79-3.41,4.34,1.09,2.17-2.17-3.41-4.35,2.17-2.94,9.31-.16,2.32,2.17-1.08,5,.15,3.25-9.3,2-3.26,4.5,5.12,3.1,2.32,7.13L120.6,463l.31,15.51-.78,11.47L118,492.26l3.41,7.13.62,28.85,4,3.1,13.64-.31,2.8-3.25.77-19.55,1.86-8.37V496.6l2.17,2.17.78-1.08-.16-3.26-.77-1.08h-2l-2.48-9.93.47-26.06,6-5.58v-1.09L144,447.9v-2l-5.59-4.35-5-.62-2.33-2,2.18-3.26-1.25-3.26v-1.86l7.29.93,6.52,1.71,2.94,2h4.35l2.17,5.27.15,4-3.1,3.26,2.33,7.13,1.24,8.38.15,11.47-2,2.95L153,478.77l2.33,6.05-1.09,4.49-2,6.05,3.41,6.05Zm-17.84-90.89-.15-2.17H134.4Z"/><path class="cls-2" d="M230.87,508.3l-1,34.37-4.46,9.45-10.29,7.39-7.9,2.23-10.47-.86-10.46-5.32-7-9.11-2.75-12.72,2.41-4.47.68-13.91,3.09-8.08-.17-4.47-4.8-17.53L177,462.59l3.43-6.87-.17-8.42,14.41-11.52,5.67-1.37,11.5.86,10.64,5.33,7,9.1Zm-16-51.58-5.83-5.32-11.5-1-3.6,5-2.06,13.55,2.57,5.49L193,502.54l.34,14.76-1.54,19.56,3.43,5.49,11.67,3.26,4.63-3.77,2.92-9.27V486.75Z"/><path class="cls-2" d="M327.15,445.11l-.93,9.46L324.66,463l.16,9.3-2,2.95.16,10.55-2,6-.77,14.89-2,4-.31,18.76-2.79,19.85-2,2.95-7.29,2.33-4.34-.93-5.12-6-1.39-12.56-2.17-3-3.57,16.75-1.09,3.26L285.89,554l-11.17-.78L270.23,545l-.16-10.08-5.12-49-2.48-10.39-1.24-12.25-2.33-4.19-.15-8.38-1.24-6-.16-3.26,5.43-5.27h6.05l4,3.87,2.49,10.39L276.74,469l2.48,10.54.16,5,1.08,1.09,1.71-2.17.93-9.15,6.36-6.52,7.13-.15,5.28,6.36,1.24,11.16,1.08.94h2.17l1.71-6.21,2.64-28.23,2-9.3-.15-1.09,5-3.1,5.43.62Z"/><path class="cls-2" d="M547.35,219.61l-.93,9.46-1.55,8.38.15,9.3-2,2.95.15,10.54-2,6.05-.78,14.89-2,4L538.05,304l-2.8,19.85-2,2.95L526,329.11l-4.34-.94-5.12-6-1.4-12.57-2.17-2.94-3.57,16.75-1.08,3.25-2.17,1.86-11.17-.77-4.5-8.22-.15-10.08-5.12-49L482.68,250l-1.24-12.26-2.33-4.18-.15-8.38-1.25-6.05-.15-3.25,5.43-5.28H489l4,3.88,2.48,10.39,1.4,18.61L499.43,254l.15,5,1.09,1.09,1.7-2.17.93-9.15,6.36-6.52,7.14-.15,5.27,6.36,1.24,11.16,1.09.93h2.17l1.7-6.2,2.64-28.23,2-9.3-.16-1.09,5-3.1,5.42.62Z"/><path class="cls-2" d="M407.15,466.9l-1.86,43.58.62,30.4-3.1,6.21-3.1,2.17-5.12.15-5.12-4.19-4.65-15.51-2.17-3.1-1.24-6.2-1.86-3.1-2.48-10.08-4.5-11.48-1.86-2-2.18,2.17-1.7,23.89.62,23.73-3.1,5.43-3,1.24h-3.26l-6.2-7L353.65,521l.46-55.21,1.55-27.77,2.17-1.08,6.21.93,7.44,11,1.24,6.52,3.26,5,7.75,19.69,2.33,9.31,2.17,2.79H389l2.32-41.56L391,440.23l3.26-4,7.13-.31,2.33,6.21,1.4,12.56Z"/><path class="cls-2" d="M490.09,533.2l-.93,7.6-7.13,3-36.6-1.24-2.8-1.86-2.32-2-1.4-62.35,1.71-49.94,4.34-3.25,9.46.77,2.95,3.26-.47,14.42-2.79,65.3,2.17,5.43-1.86,11.63,1.24,2.79,25.9.47,6.21,2Z"/><path class="cls-2" d="M552.56,502.27l-.93,31.06-4,8.55-9.31,6.68-7.13,2-9.46-.78L512.24,545l-6.36-8.23-2.48-11.49,2.17-4,.62-12.58,2.79-7.3-.15-4-4.35-15.83L503.86,461l3.1-6.21-.15-7.61,13-10.4L525,435.5l10.39.77,9.61,4.82,6.36,8.23Zm-14.42-46.61-5.27-4.81-10.4-.93-3.25,4.5-1.86,12.25,2.32,5-1.39,25.44.31,13.34-1.4,17.68,3.1,5,10.55,3,4.19-3.42,2.63-8.37V482.8Z"/><path class="cls-2" d="M637.71,534l-3.1,6.21-2.79,3.42-8.38.15-5.74-12.48-1.39-11.22-4-4.22-7.13.16-2.33-2.17-12.56,2.48-4.81,5.58-1.86,12.41-2,4.34-6.05,5.12-5.12-.93-4.5-5,.93-9.31,2-3.26,1.86-10.54,3.72-11.32.93-7.29,4-10.55.47-8.22,5.74-30.55,3.57-15.51,5.27-5.28,12.25.47,4.5,7.45.15,2.8,1.87,2.17.15,8.23,3.41,4.35,2.33,10.1,2.64,13.67,1.86,2.79L625,491.73l2.33,3.88,1.24,9.32,2.33,3.26.15,5.12,3,3.11.15,9.32Zm-28.07-36.9v-2.79l-1.24-1.09-1.24-6.51-2.95-5-.16-5-3.41-9.31-2.17,2.18-1.86,12.25-3.72,7.29v3.26l1.24,4,4,2,8.38.93Z"/><path class="cls-2" d="M820.61,539.4,818,544.6l-2.34,2.86-7,.13-4.8-10.45-1.17-9.39-3.37-3.53-6,.13-2-1.81-10.51,2.07-4,4.68-1.56,10.38-1.69,3.63-5.06,4.29-4.28-.78-3.77-4.16.78-7.78,1.69-2.73,1.56-8.82,3.11-9.48.78-6.1,3.37-8.83.39-6.87L777,466.47l3-13,4.41-4.41,10.26.39,3.76,6.23.13,2.34,1.56,1.82.13,6.89,2.85,3.64,1.95,8.45,2.21,11.43,1.55,2.34L810,504.05l1.95,3.25,1,7.8,1.94,2.73.13,4.28,2.47,2.6.13,7.8Zm-23.49-30.88v-2.34l-1-.91-1-5.45-2.47-4.15-.13-4.15-2.85-7.79-1.82,1.82-1.56,10.25-3.11,6.1v2.73l1,3.37,3.38,1.69,7,.78Z"/><path class="cls-2" d="M700.61,464l-.93,6.21-2,9.46.62,25.9-.46,28.22-7.14,7.29-12.56,2.49-24.81-.47L651.45,541l-.62-23.89,1.7-5,6.36-5.58-2.17-2.17-3.26.15-2.32-5.12-.94-45.75,1.71-21.71,3.1-3.26,3-1.08,14.73.62,12.26-.16,6.66,3.1,4,5,2.32,8.22.31,17.68Zm-12.87-11.16-.16-5.12-5.12-5.28-7.28-.62L666.8,440l-3.1,2.17v2.95l-.93,3.26,2.17,3.1.93,45.44L664,505.29l.31,17.68,2.32,6.51,13.34.31,4.35-2.94,1.39-13.65-1.08-54.91Z"/></g></svg>